<svg xmlns="http://www.w3.org/2000/svg" width="70" height="70" viewBox="0 0 70 70" fill="none">
  <circle cx="34.5" cy="34.5" r="32.5" fill="white"/>
  <path d="M37 32.625V17.3125C37 16.1044 36.0206 15.125 34.8125 15.125C33.6044 15.125 32.625 16.1044 32.625 17.3125V32.625H17.3125C16.1044 32.625 15.125 33.6044 15.125 34.8125C15.125 36.0206 16.1044 37 17.3125 37H32.625V52.3125C32.625 53.5206 33.6044 54.5 34.8125 54.5C36.0206 54.5 37 53.5206 37 52.3125V37H52.3125C53.5206 37 54.5 36.0206 54.5 34.8125C54.5 33.6044 53.5206 32.625 52.3125 32.625H37ZM34.8125 67.625C16.6907 67.625 2 52.9343 2 34.8125C2 16.6907 16.6907 2 34.8125 2C52.9343 2 67.625 16.6907 67.625 34.8125C67.625 52.9343 52.9343 67.625 34.8125 67.625Z" fill="#01B5AC"/>
</svg>